<?xml version="1.0" encoding="utf-8"?>
<!-- Generator: Adobe Illustrator 22.1.0, SVG Export Plug-In . SVG Version: 6.00 Build 0)  -->
<svg version="1.1" id="Layer_1" xmlns="http://www.w3.org/2000/svg" xmlns:xlink="http://www.w3.org/1999/xlink" x="0px" y="0px"
	 viewBox="0 0 949.2 214.7" style="enable-background:new 0 0 949.2 214.7;" xml:space="preserve">
<style type="text/css">
	.st0{fill:#7AC8CB;}
</style>
<g>
	<g>
		<path class="st0" d="M184.3,176.8c0-0.8,0.7-1.4,1.4-1.4h12.6c8.5,0,14.4,4.4,14.4,11.8v0.1c0,8.1-7,12.3-15.1,12.3h-10.4v13.2
			c0,0.8-0.7,1.4-1.4,1.4c-0.8,0-1.4-0.7-1.4-1.4V176.8z M197.8,197c7.2,0,12-3.8,12-9.5v-0.1c0-6.1-4.7-9.3-11.7-9.3h-10.9V197
			H197.8z"/>
		<path class="st0" d="M233.8,170.1c0,1.2-0.8,1.9-2,1.9c-1.2,0-2-0.8-2-1.9v-1c0-1.2,0.8-1.9,2-1.9c1.2,0,2,0.8,2,1.9V170.1z
			 M230.4,176.6c0-0.8,0.7-1.4,1.4-1.4c0.8,0,1.4,0.7,1.4,1.4v36.2c0,0.8-0.7,1.4-1.4,1.4c-0.8,0-1.4-0.7-1.4-1.4V176.6z"/>
		<path class="st0" d="M254,176.6c0-0.8,0.7-1.4,1.4-1.4s1.4,0.7,1.4,1.4v34.8h21.6c0.7,0,1.3,0.6,1.3,1.3c0,0.7-0.6,1.3-1.3,1.3
			h-23c-0.8,0-1.4-0.7-1.4-1.4V176.6z"/>
		<path class="st0" d="M294.6,212.1l16.5-35.8c0.4-0.8,0.9-1.4,1.9-1.4h0.1c1,0,1.5,0.6,1.9,1.4l16.5,35.7c0.2,0.3,0.2,0.6,0.2,0.9
			c0,0.7-0.6,1.3-1.4,1.3c-0.7,0-1.2-0.5-1.4-1.1l-4.5-9.9h-22.8l-4.5,10c-0.3,0.7-0.7,1-1.4,1c-0.7,0-1.3-0.6-1.3-1.2
			C294.4,212.8,294.4,212.5,294.6,212.1z M323.2,200.6L313,178.2l-10.2,22.4H323.2z"/>
		<path class="st0" d="M355.2,178h-12.4c-0.7,0-1.3-0.6-1.3-1.3c0-0.7,0.6-1.3,1.3-1.3h27.6c0.7,0,1.3,0.6,1.3,1.3
			c0,0.7-0.6,1.3-1.3,1.3h-12.4v34.8c0,0.8-0.7,1.4-1.4,1.4c-0.8,0-1.4-0.7-1.4-1.4V178z"/>
		<path class="st0" d="M389.1,212.6v-35.8c0-0.8,0.7-1.4,1.4-1.4h25c0.7,0,1.3,0.6,1.3,1.3c0,0.7-0.6,1.3-1.3,1.3H392v15.2h21
			c0.7,0,1.3,0.6,1.3,1.3c0,0.7-0.6,1.3-1.3,1.3h-21v15.5h23.8c0.7,0,1.3,0.6,1.3,1.3c0,0.7-0.6,1.3-1.3,1.3h-25.2
			C389.8,214,389.1,213.4,389.1,212.6z"/>
		<path class="st0" d="M433.3,209.2c-0.3-0.2-0.6-0.6-0.6-1.1c0-0.8,0.7-1.4,1.4-1.4c0.4,0,0.7,0.2,0.9,0.3c3.9,3.5,7.7,5,13,5
			c5.8,0,9.8-3.3,9.8-7.7v-0.1c0-4.1-2.2-6.5-10.9-8.2c-9.3-1.9-13-5-13-10.9V185c0-5.7,5.2-10.2,12.4-10.2c5.2,0,8.8,1.3,12.3,4
			c0.3,0.2,0.6,0.6,0.6,1.2c0,0.8-0.7,1.4-1.4,1.4c-0.3,0-0.7-0.1-0.9-0.3c-3.4-2.6-6.7-3.6-10.7-3.6c-5.7,0-9.4,3.3-9.4,7.3v0.1
			c0,4.1,2.1,6.6,11.3,8.4c8.9,1.8,12.7,5,12.7,10.7v0.1c0,6.2-5.4,10.5-12.8,10.5C442.2,214.6,437.7,212.8,433.3,209.2z"/>
		<path class="st0" d="M532.2,213.9l-5.7-6c-3.6,4.3-7.9,6.7-13.1,6.7c-6.8,0-11.9-4.4-11.9-10.7v-0.1c0-5.2,3.7-9,10-11.3
			c-2.9-3.3-4.3-5.6-4.3-8.8v-0.1c0-5,4-8.8,9.7-8.8c5,0,8.9,3.8,8.9,8.4v0.1c0,4.8-3.6,8-9.5,10l10.2,10.4c1.7-2.4,3.3-5.3,4.6-8.5
			c0.1-0.3,0.5-0.8,1.3-0.8c0.8,0,1.4,0.6,1.4,1.4c0,0.2-0.1,0.5-0.2,0.7c-1.6,3.5-3.3,6.6-5.2,9.2l6,6.2c0.4,0.4,0.7,0.7,0.7,1.3
			c0,0.8-0.6,1.4-1.4,1.4C532.9,214.5,532.6,214.2,532.2,213.9z M524.6,206l-11.4-11.8c-6.1,2.1-8.8,5.7-8.8,9.4v0.1
			c0,4.7,3.8,8.3,9.1,8.3C517.7,212.1,521.4,209.8,524.6,206z M522.9,183.3v-0.1c0-3.4-2.6-6.1-6.1-6.1c-3.9,0-6.7,2.8-6.7,6.2v0.1
			c0,2.4,1,4.3,4.5,8C520,189.7,522.9,187,522.9,183.3z"/>
		<path class="st0" d="M589.8,198.7l-15.1-21.3c-0.2-0.3-0.3-0.6-0.3-0.9c0-0.8,0.7-1.4,1.5-1.4c0.6,0,1,0.3,1.3,0.8l14,20.2
			l14.1-20.2c0.3-0.4,0.7-0.8,1.3-0.8c0.7,0,1.4,0.7,1.4,1.4c0,0.4-0.2,0.8-0.4,1.1l-15,21v14.1c0,0.8-0.7,1.4-1.4,1.4
			c-0.8,0-1.4-0.7-1.4-1.4V198.7z"/>
		<path class="st0" d="M620.5,194.8v-0.1c0-10.5,7.8-20,19.5-20c11.7,0,19.4,9.3,19.4,19.9v0.1c0,10.5-7.8,20-19.5,20
			C628.2,214.7,620.5,205.4,620.5,194.8z M656.4,194.8v-0.1c0-9.6-7-17.4-16.5-17.4c-9.6,0-16.4,7.7-16.4,17.3v0.1
			c0,9.6,7,17.4,16.5,17.4C649.6,212.1,656.4,204.4,656.4,194.8z"/>
		<path class="st0" d="M676.3,194.8v-0.1c0-10.4,7.6-20,19.1-20c5.8,0,9.6,1.6,13.2,4.3c0.3,0.3,0.6,0.7,0.6,1.2
			c0,0.8-0.7,1.4-1.4,1.4c-0.2,0-0.6-0.1-0.9-0.4c-3-2.3-6.2-3.9-11.6-3.9c-9.4,0-16,7.9-16,17.3v0.1c0,10,6.2,17.4,16.6,17.4
			c4.9,0,9.5-2,12.3-4.4v-11.1h-12c-0.7,0-1.3-0.6-1.3-1.3c0-0.7,0.6-1.3,1.3-1.3h13.4c0.8,0,1.4,0.7,1.4,1.4v12.6
			c0,0.6-0.4,1.2-1,1.7c-3.6,2.8-8.4,5-14.2,5C683.5,214.7,676.3,205.7,676.3,194.8z"/>
		<path class="st0" d="M727.7,212.1l16.5-35.8c0.4-0.8,0.9-1.4,1.9-1.4h0.1c1,0,1.5,0.6,1.9,1.4l16.5,35.7c0.2,0.3,0.2,0.6,0.2,0.9
			c0,0.7-0.6,1.3-1.4,1.3c-0.7,0-1.2-0.5-1.4-1.1l-4.5-9.9h-22.8l-4.5,10c-0.3,0.7-0.7,1-1.4,1c-0.7,0-1.3-0.6-1.3-1.2
			C727.5,212.8,727.6,212.5,727.7,212.1z M756.3,200.6l-10.2-22.4l-10.2,22.4H756.3z"/>
	</g>
	<g>
		<path class="st0" d="M51.4,130.8h-9.4L0,0h10.3l36.4,115.8L84.1,0h9.3l37.4,115.8L167.2,0h10.3l-42.1,130.8h-9.3L88.8,15
			L51.4,130.8z"/>
		<path class="st0" d="M305.4,110.9c8.1-8.3,12.2-18.5,12.2-30.6V0h9.3v80.4c0,14.5-5,26.8-15.1,37c-10.1,10.2-22.2,15.3-36.2,15.3
			s-26.1-5.1-36.2-15.3c-10.1-10.2-15.1-22.5-15.1-37V0h9.3v80.4c0,12.1,4.1,22.3,12.2,30.6c8.1,8.3,18.1,12.4,29.8,12.4
			S297.3,119.2,305.4,110.9z"/>
		<path class="st0" d="M492.4,0v130.8h-7.5l-86.8-113v113h-9.4V0h7.5l86.9,113V0H492.4z"/>
		<path class="st0" d="M594.2,0c19.4,0,35.6,6.3,48.7,19c13,12.6,19.6,28.1,19.6,46.4s-6.5,33.8-19.5,46.4c-13,12.6-29.3,19-48.7,19
			h-38.3V0H594.2z M565.3,9.4v112.1h28.9c17.2,0,31.3-5.3,42.3-16c11-10.7,16.5-24,16.5-40.1s-5.5-29.4-16.5-40
			c-11-10.6-25.1-16-42.3-16H565.3z"/>
		<path class="st0" d="M806.2,121.5v9.3h-89.7V0h87.8v9.4H726v48.5h63.5v9.4H726v54.2H806.2z"/>
		<path class="st0" d="M906.2,0c11.6,0,21.1,3.7,28.7,11c7.6,7.4,11.4,16.4,11.4,27.3c0,5.7-1,10.9-3,15.5c-2,4.6-4.4,8.2-7.3,10.7
			c-2.9,2.5-5.7,4.6-8.5,6.2c-2.8,1.7-5.2,2.8-7.2,3.2l-3,0.8l31.7,56h-10.3l-30.8-54.2h-42v54.2h-9.4V0H906.2z M866.1,9.4v57.9
			h40.1c9.2,0,16.7-2.7,22.3-8.1c5.7-5.4,8.5-12.4,8.5-20.8c0-8.5-2.8-15.4-8.5-20.8c-5.7-5.4-13.1-8.1-22.3-8.1H866.1z"/>
	</g>
</g>
</svg>
