<?xml version="1.0" encoding="utf-8"?>
<!-- Generator: Adobe Illustrator 22.1.0, SVG Export Plug-In . SVG Version: 6.00 Build 0)  -->
<svg version="1.1" id="Layer_1" xmlns="http://www.w3.org/2000/svg" xmlns:xlink="http://www.w3.org/1999/xlink" x="0px" y="0px"
	 viewBox="0 0 155.7 156.2" style="enable-background:new 0 0 155.7 156.2;" xml:space="preserve">
<style type="text/css">
	.st0{fill:#7AC8CB;}
	.st1{fill:none;stroke:#FFFFFF;stroke-width:0.5;stroke-miterlimit:10;}
	.st2{fill:#FFFFFF;}
</style>
<g>
	
		<ellipse transform="matrix(0.7302 -0.6833 0.6833 0.7302 -32.3436 74.2685)" class="st0" cx="77.9" cy="78.1" rx="78.5" ry="75.9"/>
	<g>
		<g>
			<ellipse class="st1" cx="77.9" cy="78.1" rx="71.6" ry="77.8"/>
			
				<ellipse transform="matrix(0.6327 -0.7744 0.7744 0.6327 -31.8706 88.9743)" class="st1" cx="77.9" cy="78.1" rx="77.8" ry="71.6"/>
			
				<ellipse transform="matrix(0.9799 -0.1994 0.1994 0.9799 -14.0055 17.0918)" class="st1" cx="77.9" cy="78.1" rx="77.8" ry="71.6"/>
		</g>
		<g>
			<path class="st2" d="M42.1,91.1c0-0.1,0.1-0.2,0.2-0.2h1.6c1.1,0,1.8,0.5,1.8,1.5v0c0,1-0.9,1.6-1.9,1.6h-1.3v1.7
				c0,0.1-0.1,0.2-0.2,0.2c-0.1,0-0.2-0.1-0.2-0.2V91.1z M43.8,93.7c0.9,0,1.5-0.5,1.5-1.2v0c0-0.8-0.6-1.2-1.5-1.2h-1.4v2.4H43.8z"
				/>
			<path class="st2" d="M48.3,90.3c0,0.1-0.1,0.2-0.3,0.2c-0.1,0-0.3-0.1-0.3-0.2v-0.1c0-0.1,0.1-0.2,0.3-0.2c0.1,0,0.3,0.1,0.3,0.2
				V90.3z M47.9,91.1c0-0.1,0.1-0.2,0.2-0.2c0.1,0,0.2,0.1,0.2,0.2v4.6c0,0.1-0.1,0.2-0.2,0.2c-0.1,0-0.2-0.1-0.2-0.2V91.1z"/>
			<path class="st2" d="M50.9,91.1c0-0.1,0.1-0.2,0.2-0.2s0.2,0.1,0.2,0.2v4.4H54c0.1,0,0.2,0.1,0.2,0.2c0,0.1-0.1,0.2-0.2,0.2h-2.9
				c-0.1,0-0.2-0.1-0.2-0.2V91.1z"/>
			<path class="st2" d="M56,95.6l2.1-4.5c0-0.1,0.1-0.2,0.2-0.2h0c0.1,0,0.2,0.1,0.2,0.2l2.1,4.5c0,0,0,0.1,0,0.1
				c0,0.1-0.1,0.2-0.2,0.2c-0.1,0-0.1-0.1-0.2-0.1l-0.6-1.3h-2.9l-0.6,1.3c0,0.1-0.1,0.1-0.2,0.1c-0.1,0-0.2-0.1-0.2-0.2
				C56,95.7,56,95.6,56,95.6z M59.6,94.1l-1.3-2.8L57,94.1H59.6z"/>
			<path class="st2" d="M63.6,91.3h-1.6c-0.1,0-0.2-0.1-0.2-0.2c0-0.1,0.1-0.2,0.2-0.2h3.5c0.1,0,0.2,0.1,0.2,0.2
				c0,0.1-0.1,0.2-0.2,0.2H64v4.4c0,0.1-0.1,0.2-0.2,0.2c-0.1,0-0.2-0.1-0.2-0.2V91.3z"/>
			<path class="st2" d="M67.9,95.6v-4.5c0-0.1,0.1-0.2,0.2-0.2h3.1c0.1,0,0.2,0.1,0.2,0.2c0,0.1-0.1,0.2-0.2,0.2h-3v1.9h2.6
				c0.1,0,0.2,0.1,0.2,0.2c0,0.1-0.1,0.2-0.2,0.2h-2.6v2h3c0.1,0,0.2,0.1,0.2,0.2c0,0.1-0.1,0.2-0.2,0.2h-3.2
				C68,95.8,67.9,95.7,67.9,95.6z"/>
			<path class="st2" d="M73.5,95.2c0,0-0.1-0.1-0.1-0.1c0-0.1,0.1-0.2,0.2-0.2c0,0,0.1,0,0.1,0c0.5,0.4,1,0.6,1.6,0.6
				c0.7,0,1.2-0.4,1.2-1v0c0-0.5-0.3-0.8-1.4-1c-1.2-0.2-1.6-0.6-1.6-1.4v0c0-0.7,0.7-1.3,1.6-1.3c0.7,0,1.1,0.2,1.6,0.5
				c0,0,0.1,0.1,0.1,0.1c0,0.1-0.1,0.2-0.2,0.2c0,0-0.1,0-0.1,0c-0.4-0.3-0.8-0.5-1.3-0.5c-0.7,0-1.2,0.4-1.2,0.9v0
				c0,0.5,0.3,0.8,1.4,1.1c1.1,0.2,1.6,0.6,1.6,1.3v0c0,0.8-0.7,1.3-1.6,1.3C74.6,95.9,74,95.7,73.5,95.2z"/>
			<path class="st2" d="M85.9,95.8L85.2,95c-0.5,0.5-1,0.8-1.6,0.8c-0.9,0-1.5-0.6-1.5-1.3v0c0-0.7,0.5-1.1,1.3-1.4
				c-0.4-0.4-0.5-0.7-0.5-1.1v0c0-0.6,0.5-1.1,1.2-1.1c0.6,0,1.1,0.5,1.1,1.1v0c0,0.6-0.5,1-1.2,1.3l1.3,1.3
				c0.2-0.3,0.4-0.7,0.6-1.1c0,0,0.1-0.1,0.2-0.1c0.1,0,0.2,0.1,0.2,0.2c0,0,0,0.1,0,0.1c-0.2,0.4-0.4,0.8-0.7,1.2l0.8,0.8
				c0.1,0.1,0.1,0.1,0.1,0.2c0,0.1-0.1,0.2-0.2,0.2C86,95.9,86,95.8,85.9,95.8z M85,94.8l-1.4-1.5c-0.8,0.3-1.1,0.7-1.1,1.2v0
				c0,0.6,0.5,1.1,1.1,1.1C84.1,95.6,84.6,95.3,85,94.8z M84.7,92L84.7,92c0-0.4-0.3-0.8-0.8-0.8c-0.5,0-0.8,0.3-0.8,0.8v0
				c0,0.3,0.1,0.5,0.6,1C84.4,92.8,84.7,92.4,84.7,92z"/>
			<path class="st2" d="M93.2,93.9l-1.9-2.7c0,0,0-0.1,0-0.1c0-0.1,0.1-0.2,0.2-0.2c0.1,0,0.1,0,0.2,0.1l1.8,2.5l1.8-2.5
				c0-0.1,0.1-0.1,0.2-0.1c0.1,0,0.2,0.1,0.2,0.2c0,0,0,0.1-0.1,0.1l-1.9,2.6v1.8c0,0.1-0.1,0.2-0.2,0.2c-0.1,0-0.2-0.1-0.2-0.2
				V93.9z"/>
			<path class="st2" d="M97,93.4L97,93.4c0-1.3,1-2.5,2.5-2.5c1.5,0,2.4,1.2,2.4,2.5v0c0,1.3-1,2.5-2.5,2.5C98,95.9,97,94.7,97,93.4
				z M101.6,93.4L101.6,93.4c0-1.2-0.9-2.2-2.1-2.2c-1.2,0-2.1,1-2.1,2.2v0c0,1.2,0.9,2.2,2.1,2.2C100.7,95.6,101.6,94.6,101.6,93.4
				z"/>
			<path class="st2" d="M104.1,93.4L104.1,93.4c0-1.3,1-2.5,2.4-2.5c0.7,0,1.2,0.2,1.7,0.5c0,0,0.1,0.1,0.1,0.1
				c0,0.1-0.1,0.2-0.2,0.2c0,0-0.1,0-0.1,0c-0.4-0.3-0.8-0.5-1.5-0.5c-1.2,0-2,1-2,2.2v0c0,1.3,0.8,2.2,2.1,2.2
				c0.6,0,1.2-0.3,1.6-0.6v-1.4h-1.5c-0.1,0-0.2-0.1-0.2-0.2c0-0.1,0.1-0.2,0.2-0.2h1.7c0.1,0,0.2,0.1,0.2,0.2v1.6
				c0,0.1,0,0.1-0.1,0.2c-0.5,0.4-1.1,0.6-1.8,0.6C105,95.9,104.1,94.8,104.1,93.4z"/>
			<path class="st2" d="M110.5,95.6l2.1-4.5c0-0.1,0.1-0.2,0.2-0.2h0c0.1,0,0.2,0.1,0.2,0.2l2.1,4.5c0,0,0,0.1,0,0.1
				c0,0.1-0.1,0.2-0.2,0.2c-0.1,0-0.1-0.1-0.2-0.1l-0.6-1.3h-2.9l-0.6,1.3c0,0.1-0.1,0.1-0.2,0.1c-0.1,0-0.2-0.1-0.2-0.2
				C110.5,95.7,110.5,95.6,110.5,95.6z M114.1,94.1l-1.3-2.8l-1.3,2.8H114.1z"/>
		</g>
		<g>
			<path class="st2" d="M25.4,85.3h-1.2l-5.3-16.5h1.3l4.6,14.6l4.7-14.6h1.2l4.7,14.6l4.6-14.6h1.3l-5.3,16.5h-1.2l-4.7-14.6
				L25.4,85.3z"/>
			<path class="st2" d="M57.4,82.8c1-1,1.5-2.3,1.5-3.8V68.9h1.2V79c0,1.8-0.6,3.4-1.9,4.7c-1.3,1.3-2.8,1.9-4.6,1.9
				s-3.3-0.6-4.6-1.9c-1.3-1.3-1.9-2.8-1.9-4.7V68.9h1.2V79c0,1.5,0.5,2.8,1.5,3.8c1,1,2.3,1.6,3.8,1.6S56.3,83.9,57.4,82.8z"/>
			<path class="st2" d="M80.9,68.9v16.5H80L69,71.1v14.2h-1.2V68.9h0.9l10.9,14.2V68.9H80.9z"/>
			<path class="st2" d="M93.7,68.9c2.4,0,4.5,0.8,6.1,2.4c1.6,1.6,2.5,3.5,2.5,5.8c0,2.3-0.8,4.3-2.5,5.8s-3.7,2.4-6.1,2.4h-4.8
				V68.9H93.7z M90.1,70v14.1h3.6c2.2,0,3.9-0.7,5.3-2c1.4-1.3,2.1-3,2.1-5s-0.7-3.7-2.1-5c-1.4-1.3-3.2-2-5.3-2H90.1z"/>
			<path class="st2" d="M120.4,84.2v1.2h-11.3V68.9h11.1V70h-9.9v6.1h8v1.2h-8v6.8H120.4z"/>
			<path class="st2" d="M133,68.9c1.5,0,2.7,0.5,3.6,1.4c1,0.9,1.4,2.1,1.4,3.4c0,0.7-0.1,1.4-0.4,2c-0.2,0.6-0.6,1-0.9,1.3
				s-0.7,0.6-1.1,0.8c-0.4,0.2-0.7,0.3-0.9,0.4l-0.4,0.1l4,7.1h-1.3l-3.9-6.8H128v6.8h-1.2V68.9H133z M128,70v7.3h5.1
				c1.2,0,2.1-0.3,2.8-1c0.7-0.7,1.1-1.6,1.1-2.6c0-1.1-0.4-1.9-1.1-2.6c-0.7-0.7-1.7-1-2.8-1H128z"/>
		</g>
	</g>
</g>
</svg>
